<svg enable-background="new 0 0 490.667 490.667" viewBox="0 0 490.667 490.667" xmlns="http://www.w3.org/2000/svg">
    <path
        d="m320 341.333h-18.987l29.44-147.243c.661-3.328-.299-6.784-2.603-9.301-2.283-2.475-5.611-3.755-9.045-3.392l-79.424 8.832 37.376-112.192c1.088-3.243.533-6.827-1.451-9.6-1.984-2.795-5.205-4.437-8.64-4.437h-85.333c-4.843 0-9.088 3.264-10.304 
        7.957l-53.333 202.667c-.917 3.499 0 7.232 2.432 9.899 2.453 2.667 6.101 3.989 9.643 3.328l112.405-18.731-16.064 
        72.213h-23.445c-3.691 0-7.125 1.92-9.067 5.056s-2.133 7.061-.469 10.368l42.667 85.333c1.6 3.179 4.651 5.355 8.192 5.803.448.064.896.085 1.344.085 3.051 0 5.995-1.323 8.021-3.648l74.667-85.333c2.752-3.136 3.413-7.616 
        1.685-11.435-1.728-3.797-5.526-6.229-9.707-6.229z"
    />
    <path 
        d="m245.333 0c-135.274 0-245.333 110.059-245.333 245.333s110.059 245.333 245.333 245.333 245.333-110.059 245.333-245.333-110.058-245.333-245.333-245.333zm0 
        469.333c-123.52 0-224-100.48-224-224s100.48-224 224-224 224 100.48 224 224-100.48 224-224 224z"
    />
</svg>