
<svg version="1.1" xmlns="http://www.w3.org/2000/svg" xmlns:xlink="http://www.w3.org/1999/xlink" x="0px" y="0px"
	 viewBox="0 0 300.145 300.145" style="enable-background:new 0 0 300.145 300.145;" xml:space="preserve">
<g>
	<path d="M49.126,150.126c0-42.346,26.212-78.68,63.26-93.643l18.904-37.971C66.847,27.667,17.126,83.194,17.126,150.126
		c0,60.895,41.157,112.355,97.113,128.035l3.636-32.354C77.952,232.337,49.126,194.535,49.126,150.126z"/>
	<path d="M283.019,150.126c0-60.883-41.139-112.333-97.076-128.025l-3.718,32.33c39.946,13.457,68.794,51.27,68.794,95.695
		c0,42.099-25.907,78.255-62.613,93.379l-19.428,38.217C233.361,272.515,283.019,217.015,283.019,150.126z"/>
	<path d="M226.169,134.015c1.26-2.479,1.141-5.202-0.314-7.572c-1.454-2.371-4.036-3.316-6.818-3.316h-60.821L171.309,9.3
		c0.446-3.859-1.946-7.857-5.672-8.963C164.868,0.109,164.089,0,163.32,0c-2.954,0-5.746,1.681-7.121,4.442L73.946,169.718
		c-1.234,2.479-1.098,5.78,0.36,8.136c1.459,2.355,4.031,4.273,6.802,4.273h60.019l-12.304,109.543
		c-0.43,3.844,1.951,7.077,5.657,8.185c0.761,0.228,1.532,0.29,2.293,0.29c2.948,0,5.74-1.637,7.133-4.378L226.169,134.015z"/>
</g>

</svg>
